<?xml version="1.0" encoding="UTF-8" standalone="no"?>
<!DOCTYPE svg PUBLIC "-//W3C//DTD SVG 1.1//EN" "http://www.w3.org/Graphics/SVG/1.1/DTD/svg11.dtd">
<svg width="100%" height="100%" viewBox="0 0 828 817" version="1.1" xmlns="http://www.w3.org/2000/svg" xmlns:xlink="http://www.w3.org/1999/xlink" xml:space="preserve" xmlns:serif="http://www.serif.com/" style="fill-rule:evenodd;clip-rule:evenodd;stroke-linejoin:round;stroke-miterlimit:2;">
    <g transform="matrix(1,0,0,1,-1546.76,-840.487)">
        <g>
            <g transform="matrix(0.827354,0,0,0.966048,267.041,56.2674)">
                <path d="M2546.97,1023.15L2546.97,1445.88C2546.97,1562.54 2436.38,1657.25 2300.17,1657.25L1793.56,1657.25C1657.34,1657.25 1546.76,1562.54 1546.76,1445.88L1546.76,1023.15C1546.76,906.492 1657.34,811.781 1793.56,811.781L2300.17,811.781C2436.38,811.781 2546.97,906.492 2546.97,1023.15Z" style="fill:rgb(193,32,38);"/>
            </g>
            <g transform="matrix(0.754831,0,0,0.754831,703.157,323.513)">
                <circle cx="1417.8" cy="1192.87" r="198.201" style="fill:white;"/>
            </g>
            <g transform="matrix(0.754831,0,0,0.754831,885.133,235.269)">
                <circle cx="1417.8" cy="1192.87" r="198.201" style="fill:white;"/>
            </g>
            <g transform="matrix(0.754831,0,0,0.754831,1077.49,323.513)">
                <circle cx="1417.8" cy="1192.87" r="198.201" style="fill:white;"/>
            </g>
            <g transform="matrix(0.754831,0,0,0.754831,885.133,343.186)">
                <circle cx="1417.8" cy="1192.87" r="198.201" style="fill:white;"/>
            </g>
            <g transform="matrix(3.72574e-17,0.608459,-1.49934,9.18082e-17,3734.11,539.967)">
                <path d="M910.544,1202.88L910.544,1169.87L1171.59,1169.87L1171.59,1139.22L1287.79,1186.37L1171.59,1233.53L1171.59,1202.88L910.544,1202.88Z" style="fill:rgb(193,32,38);"/>
            </g>
            <g transform="matrix(0.642887,0,0,0.642887,700.128,472.044)">
                <path d="M2219.84,1432.86C2229.93,1432.86 2239.13,1438.66 2243.48,1447.76C2247.84,1456.87 2246.58,1467.67 2240.24,1475.53C2174.11,1556.77 2073.34,1608.79 1960.52,1608.79C1847.7,1608.79 1746.93,1556.77 1680.92,1475.43C1674.62,1467.62 1673.37,1456.88 1677.7,1447.83C1682.03,1438.78 1691.17,1433.02 1701.21,1433.02C1701.69,1432.86 1702.14,1432.86 1702.57,1432.86C1705.08,1432.86 1707.45,1434.05 1708.94,1436.07C1766.14,1512.78 1857.57,1562.5 1960.52,1562.5C2062.99,1562.5 2154.05,1513.25 2211.3,1437.14C2213.31,1434.45 2216.47,1432.87 2219.83,1432.87C2219.83,1432.86 2219.83,1432.86 2219.84,1432.86Z" style="fill:white;"/>
            </g>
            <g transform="matrix(0.467729,0,0,0.388981,1043.53,839.212)">
                <path d="M2218.59,1432.86C2228.19,1432.86 2236.84,1439.83 2240.49,1450.51C2244.14,1461.19 2242.06,1473.47 2235.23,1481.58C2169.08,1559.33 2070.53,1608.79 1960.52,1608.79C1850.51,1608.79 1751.96,1559.33 1685.92,1481.45C1679.13,1473.39 1677.07,1461.19 1680.69,1450.58C1684.32,1439.97 1692.91,1433.04 1702.45,1433.04C1702.86,1432.86 1703.24,1432.86 1703.59,1432.86C1705.49,1432.86 1707.29,1433.84 1708.55,1435.54C1765.72,1512.55 1857.33,1562.5 1960.52,1562.5C2063.26,1562.5 2154.53,1512.98 2211.75,1436.54C2213.49,1434.2 2215.97,1432.87 2218.58,1432.87C2218.58,1432.86 2218.58,1432.86 2218.59,1432.86Z" style="fill:white;"/>
            </g>
            <g transform="matrix(0.34264,0,0,0.249186,1288.77,1036.16)">
                <path d="M2217.96,1432.86C2227.06,1432.86 2235.19,1440.68 2238.31,1452.44C2241.43,1464.2 2238.87,1477.39 2231.9,1485.44C2165.81,1560.96 2068.71,1608.79 1960.52,1608.79C1852.34,1608.79 1755.23,1560.96 1689.23,1485.3C1682.31,1477.3 1679.76,1464.19 1682.86,1452.51C1685.96,1440.82 1694.04,1433.05 1703.09,1433.05C1705.28,1432.86 1706.58,1432.86 1706.58,1432.86C1763.6,1511.39 1856.14,1562.5 1960.52,1562.5C2063.41,1562.5 2154.79,1512.85 2211.99,1436.22C2213.58,1434.08 2215.71,1432.87 2217.94,1432.87C2217.95,1432.86 2217.95,1432.86 2217.96,1432.86Z" style="fill:white;"/>
            </g>
        </g>
    </g>
</svg>
